<svg width="423.94381" height="590.15034" xmlns="http://www.w3.org/2000/svg" data-src="https://cdn.undraw.co/illustrations/sunlight_m10w.svg" role="img" artist="Katerina Limpitsouni" source="https://undraw.co/">
 <g>
  <title>Layer 1</title>
  <circle cx="65.78022" cy="65.78022" r="65.78022" fill="#6c63ff" id="svg_1"/>
  <path d="m257.26324,147.77596l2.73657,-11.94423c-0.46758,-1.24197 0.03261,-2.66622 1.23391,-3.31105c2.11691,-3.51364 5.2536,-5.15692 9.35895,-5.02374c1.09729,-0.58899 2.41374,-0.32998 3.22673,0.53782c1.94629,-2.56897 4.70068,-3.94263 8.10645,-4.35144c-0.27393,-1.1571 0.23781,-2.39747 1.33504,-2.98645c2.15851,-3.28357 5.46533,-4.68204 9.35901,-5.02374c1.30847,-0.70236 2.93856,-0.21106 3.64094,1.09745l0.52578,0.9795l9.47663,4.0259l-0.82095,1.41658l-7.87479,-3.93442c1.7512,3.80945 0.26578,8.371 -3.47873,10.38099c-3.89289,2.08964 -8.74269,0.62782 -10.83233,-3.26507l-0.94591,-1.76217l-7.92979,4.25658l0.94591,1.76217c2.08964,3.89289 0.62782,8.74269 -3.26507,10.83233c-3.89289,2.08964 -8.74269,0.62782 -10.83233,-3.26507l-0.41707,-0.77697l-1.27873,10.41476l-2.27023,-0.05971l0.00001,-0.00002z" fill="#3f3d56" id="svg_2"/>
  <path d="m222.39246,572.81739c-2.06592,0.12937 -3.20768,-2.43737 -1.64468,-3.93333l0.1555,-0.61819c-0.02047,-0.04951 -0.04105,-0.09897 -0.06178,-0.14839c-2.08924,-4.9818 -9.16992,-4.94742 -11.24139,0.04177c-1.83859,4.42817 -4.17942,8.86389 -4.75579,13.54594c-0.25838,2.0668 -0.14213,4.17236 0.31648,6.20047c-4.30807,-9.41059 -6.57515,-19.68661 -6.57515,-30.02077c0,-2.59652 0.14213,-5.19301 0.43275,-7.78295c0.239,-2.11854 0.56839,-4.2241 0.99471,-6.31034c2.30575,-11.2772 7.29852,-22.01825 14.50012,-30.98962c3.46197,-1.89248 6.34906,-4.85065 8.09295,-8.39652c0.62649,-1.27891 1.11739,-2.65462 1.34991,-4.05618c-0.39398,0.05168 -1.48556,-5.94866 -1.18841,-6.3168c-0.54906,-0.83317 -1.53178,-1.24733 -2.13144,-2.06034c-2.98232,-4.04341 -7.0912,-3.33741 -9.23621,2.15727c-4.58224,2.31266 -4.62659,6.14806 -1.81495,9.83683c1.78878,2.34682 2.03456,5.52233 3.60408,8.03478c-0.16151,0.20671 -0.32944,0.40695 -0.4909,0.61366c-2.96106,3.79788 -5.52208,7.88002 -7.68104,12.16859c0.61017,-4.76621 -0.29067,-10.50822 -1.82641,-14.20959c-1.74819,-4.21732 -5.02491,-7.76915 -7.91045,-11.41501c-3.46601,-4.37924 -10.57337,-2.46806 -11.18401,3.08332c-0.00591,0.05375 -0.01166,0.10745 -0.01731,0.1612c0.4286,0.24178 0.84849,0.49867 1.25864,0.76992c2.33949,1.54723 1.53096,5.17386 -1.24107,5.60174l-0.06277,0.00967c0.15503,1.54366 0.41984,3.07444 0.80734,4.57937c-3.70179,14.31579 4.29011,19.5299 15.70147,19.76412c0.25191,0.12916 0.49738,0.25832 0.74929,0.38109c-1.15617,3.25525 -2.07982,6.59447 -2.76441,9.97891c-0.61359,2.99043 -1.03991,6.01317 -1.27885,9.04888c-0.29715,3.83006 -0.27129,7.67959 0.05168,11.50323l-0.01939,-0.13562c-0.82024,-4.21115 -3.10671,-8.14462 -6.4266,-10.87028c-4.94561,-4.06264 -11.93282,-5.55869 -17.26826,-8.82425c-2.56833,-1.57196 -5.85945,0.45945 -5.41121,3.43708l0.02182,0.14261c0.79443,0.32289 1.56947,0.69755 2.31871,1.11733c0.4286,0.24184 0.84848,0.49867 1.25864,0.76992c2.33949,1.54729 1.53096,5.17392 -1.24107,5.6018l-0.06282,0.00965c-0.0452,0.00646 -0.08397,0.01295 -0.12911,0.01944c1.36282,3.23581 3.26168,6.23922 5.63854,8.82922c2.31463,12.49713 12.25603,13.68282 22.89022,10.04354l0.00648,0c1.16259,5.06378 2.86128,10.01127 5.0444,14.72621l18.02019,0c0.06463,-0.20022 0.12274,-0.40692 0.18089,-0.60717c-1.6664,0.10341 -3.34571,0.00649 -4.98629,-0.29702c1.33701,-1.64059 2.67396,-3.29409 4.01097,-4.93462c0.03229,-0.0323 0.05816,-0.0646 0.08397,-0.09689c0.67817,-0.8396 1.36282,-1.67283 2.04099,-2.51246l0.00036,-0.00102c0.04245,-2.57755 -0.26652,-5.14662 -0.87876,-7.63984l-0.00057,-0.00035l0,-0.00001z" fill="#2f2e41" id="svg_3"/>
  <path d="m293.41397,162.52941l10.90482,13.08578l-5.8159,-42.16529l-2.15664,1.07832c-2.24862,1.12431 -3.6847,3.40657 -3.72524,5.92028l0.79297,22.08091l-0.00001,0z" fill="#2f2e41" id="svg_4"/>
  <g id="svg_5">
   <polygon points="271.46646 517.55223 278.4743 530.90703 278.48701 530.94272 280.81383 535.38752 284.56054 542.52079 284.56372 542.52971 286.13677 545.5354 288.48201 550.00368 294.40981 547.75122 296.17669 547.07148 297.10638 546.72029 295.53736 542.59816 291.38944 531.66 284.18929 512.71824 284.1091 512.74681 282.33903 513.41763 275.27081 516.10641 273.50074 516.77723 271.46646 517.55223" fill="#ffb6b6" id="svg_6"/>
   <path d="m274.88954,571.1194c0.81878,2.12912 3.19919,3.19975 5.32269,2.39309l2.8302,-1.07866l1.77006,-0.67081l7.0714,-2.67986l1.77898,-0.67399l3.69739,-1.40771l0.62695,-7.2349l1.51109,2.46518l0.00318,0.00892l1.96307,3.19832l1.03661,-0.38941l5.43182,-2.06583l-10.09081,-21.10613l-2.30482,0.72055l-0.8417,0.25964l-1.80817,0.56385l-6.74179,2.11057l-0.00892,0.00318l-0.4699,0.14729l-1.80821,0.56374l-0.7494,0.23681l2.35031,6.17423l-4.87433,7.07058l-1.33125,1.93077l-3.90065,5.65885c-0.76721,1.11721 -0.9447,2.53652 -0.4638,3.80172l0,0.00001z" fill="#2f2e41" id="svg_7"/>
  </g>
  <g id="svg_8">
   <polygon points="343.67572 532.85007 345.79535 547.78217 345.79535 547.82006 346.49557 552.78796 347.63111 560.76492 347.63111 560.77439 348.10424 564.13368 348.81394 569.12988 355.15387 568.99739 357.04641 568.95003 358.04003 568.9312 357.94537 564.52157 357.7088 552.82573 357.28297 532.56614 357.19784 532.56614 355.30531 532.60403 347.74465 532.76482 345.85212 532.80271 343.67572 532.85007" fill="#ffb6b6" id="svg_9"/>
   <path d="m328.92341,584.45946c0.05677,2.28042 1.93983,4.08782 4.2109,4.04057l3.02806,-0.0663l1.89253,-0.03789l7.56066,-0.15132l1.902,-0.03789l3.95539,-0.08525l3.01859,-6.60492l0.59615,2.82933l0,0.00947l0.77589,3.67163l1.10717,-0.01894l5.81009,-0.12313l-2.4225,-23.26853l-2.41297,-0.09472l-0.88002,-0.03789l-1.89253,-0.07566l-7.05911,-0.27434l-0.00947,0l-0.49208,-0.01894l-1.89253,-0.07578l-0.78542,-0.02842l0.14196,6.60492l-6.9645,5.02473l-1.902,1.37204l-5.57352,4.02163c-1.09764,0.79495 -1.74115,2.07238 -1.71274,3.42559l0,0.00001z" fill="#2f2e41" id="svg_10"/>
  </g>
  <path d="m365.72158,336.51249l-6.75234,-39.96117l14.49168,-5.83077l3.02861,44.1866c1.3571,0.82882 2.4993,2.04395 3.23274,3.58742c2.0091,4.22771 0.21054,9.28365 -4.01724,11.29272c-4.22771,2.0091 -9.28359,0.21052 -11.2927,-4.01719c-1.50333,-3.16357 -0.87384,-6.79017 1.30925,-9.25761z" fill="#ffb6b6" id="svg_11"/>
  <path d="m253.91951,159.01855l-26.30635,30.82961l-13.77344,-7.3688l31.93662,-30.68681c-0.23565,-1.57261 -0.03714,-3.22845 0.67553,-4.78161c1.95196,-4.25439 6.98323,-6.12086 11.23765,-4.16882c4.25439,1.95196 6.12081,6.9832 4.16884,11.23759c-1.46069,3.18348 -4.64553,5.02883 -7.93886,4.93883l0.00001,0.00001z" fill="#ffb6b6" id="svg_12"/>
  <circle cx="312.00603" cy="152.90929" r="21.78119" fill="#ffb6b6" id="svg_13"/>
  <path d="m281.9719,291.07517l58.69626,-6.41183l2.18096,10.17783l0,2.43856l1.25251,1.45468l0.45881,1.82603l1.19664,0.09663s-0.69614,1.23353 -0.19664,1.90337c0.38509,0.51641 1.87873,0.33861 2.48685,1.22534c6.16426,8.98836 22.13531,36.38012 14.4305,69.57006l1.09048,54.88757l-1.00784,4.31703l1.16605,2.80243l0.83395,4.19757l1.1888,86.82631l2.90795,10.17783l-4.36193,13.08578l-26.17156,1.45398l-4.36193,-16.72072l2.18096,-21.08264l-6.54289,-61.79395l-1.83942,-2.94658l1.05575,-3.00009l0.94425,-3.99991l-2.01619,-4.13423l-7.14778,-54.23904l0,0c-1.86245,-4.35186 -2.63338,-9.09286 -2.24573,-13.8106l0.1635,-1.98981l-1.27317,-9.66115l-35.2589,57.42917l-11.77089,20.38497l1.22957,8.6974l7.77043,49.3026l11,12l2,16l-16,10l-18,-6l0,-12l-27.45083,-74.9793l31.22956,-92.46664l5.08891,-4.36193l-0.72699,-5.8159l4.8027,-4.8027l9.60581,-21.55283l4.41146,-9.48527l-3,-9l0.00003,-0.00002z" fill="#2f2e41" id="svg_14"/>
  <path d="m301.77432,175.97868l23.13481,0l5.21771,15.99373l32.71445,15.26674l-7.26988,34.16842l-8.72385,29.8065l-2.57022,2.57022l1.11624,4.69966l-5.64703,0l0.92161,6.1794l6.1794,9.08735l-66.49004,-1.42345l0,-14.83074l5.20291,-20.93606l0,-0.00002c-6.56825,-14.45013 -2.90449,-23.1529 -2,-38.99998l-5.77671,-21.95309l18.17469,-1.7774l5.8159,-17.85127l0.00001,-0.00001z" fill="#6c63ff" id="svg_15"/>
  <path d="m286.70688,217.82091l5.08891,-12.35879s-0.72699,-8.72385 -15.99373,-10.90482c-15.26674,-2.18096 -44.25106,-4.36193 -44.25106,-4.36193l7.00944,-7.63494l3,-8l-14,-7l-8.02688,3.94515l-2.97312,5.05485l1,2l-4.34154,2.63427c-5.40467,8.59835 -3.09409,19.92656 5.24631,25.72137l0.00001,0l3.24282,3.24283l4.75404,2.57308l5.8159,-0.72699l54.42889,5.8159l0.00001,0.00002z" fill="#6c63ff" id="svg_16"/>
  <path d="m345.75708,210.1471l12.35879,-5.08891s8.72385,0.72699 10.90482,15.99373c2.18096,15.26674 4.36193,55.25106 4.36193,55.25106l3.63494,7.99686l0,2.23534l3.2142,6.852l-1.93196,1.93196l5.26064,4.24744l-23.99059,8.72385l-5.16222,-13.19407l2.25427,-5.70761l-3.24282,-3.24282l-2.57308,-4.75404l0.72699,-5.8159l-5.8159,-65.42889l-0.00001,0z" fill="#6c63ff" id="svg_17"/>
  <path d="m353.39313,197.55599l-5.95996,0c-1.98975,-2.70007 -2.33984,-4.47998 -2.16992,-7.78003c-0.28027,2.22998 -5.02002,-4.59009 -4.75,-2.01001c0.06006,0.56006 2.9502,10.25 3.0498,10.79004c-2.76953,2.53003 -5.97998,3.85999 -9.5,4.31995c1.12012,-3.39001 -0.01953,-5.21997 -3.46973,-4.92004c0.17969,1.71997 -0.0498,3.47998 -0.62012,5.11011c-10.41992,-0.3501 -23,-6.42004 -35.42969,-11.18005c-0.4502,-3.13 0.09961,-6.41003 1.62988,-9.18005c-1.28027,2.14014 -2.53027,4.29004 -3.43018,6.61011c-0.19971,0.52002 -0.37988,1.04993 -0.54004,1.57996c-0.10986,0.38 -0.20996,0.76001 -0.2998,1.13l-5.76025,0.31006c4.89014,-7.07007 4,-16.9801 9.9502,-22.31006c9.46973,-8.46997 1.47998,-20.80005 -2.47998,-32.29004c-0.12012,-2.97998 1.70996,-5.69995 4.52002,-6.70996l7.68994,-2.76001c9.77979,-3.51001 9.29004,-5.52002 18.73975,0.29004c9.4502,-2.90002 26,12.53003 26,24c0,1 0.12012,1.96997 0.31006,2.8999c-1.10986,0.14014 -2.18994,0.5 -3.1499,1.08008c1.31006,0.73999 2.58984,1.54004 3.82031,2.40991c0.95996,5.90015 0.88965,11.92004 -0.48047,17.76001c-1.54004,6.57007 1.26025,17.71997 2.33008,20.8501l0,-0.00002z" fill="#2f2e41" id="svg_18"/>
  <path d="m423.94381,588.96034c0,0.66003 -0.53003,1.19 -1.19006,1.19l-253.28998,0c-0.65997,0 -1.19,-0.52997 -1.19,-1.19s0.53003,-1.19 1.19,-1.19l253.28998,0c0.66003,0 1.19006,0.53003 1.19006,1.19z" fill="#2f2e41" id="svg_19"/>
 </g>

</svg>