<svg width="642.99652" height="699.63874" xmlns="http://www.w3.org/2000/svg" source="https://undraw.co/" artist="Katerina Limpitsouni" role="img" data-src="https://cdn.undraw.co/illustrations/woman_nxse.svg">

 <g>
  <title>Layer 1</title>
  <path id="svg_1" fill="#fb923c" d="m526.36926,329.63874c19.90002,12.82996 38.54004,30.01001 56,51.20001l0,32.39996c-8.52002,-2.89996 -41.03998,-14.91998 -53.88,-33.92999c-14.83997,-21.96997 -17.47998,-55.32001 -5.12,-63.66998c3.21997,-2.17004 7.13,-2.44 11.41998,-1.25c13.52997,9.72998 26.47003,21.52997 38.83002,35.27997c4.38,6.73004 7.09009,15.29999 8.75,23.96002l0,0.40997c-15.98999,-22.25995 -34.79004,-36.69995 -56,-44.39996z"/>
  <path id="svg_2" fill="#fb923c" d="m525.36926,130.63872c19.90002,12.82996 38.54004,30.01001 56,51.20001l0,7.39996c-1.66992,-0.57001 -4.25,-1.47998 -7.42993,-2.72998c-14.28003,-16.92999 -30.56006,-28.33002 -48.57007,-34.87c12.59998,8.12 24.69995,17.98999 36.31006,29.51996c-12.28003,-5.90997 -26.64008,-14.66998 -34.19006,-25.84998c-0.79999,-1.17999 -1.56,-2.37 -2.27997,-3.57001c-12.70001,-21.08002 -13.54004,-44.20001 -1.84003,-52.09998c12.35999,-8.35004 34.03003,3.47998 48.87,25.44c8.57996,12.70996 10.98999,32.42999 11.47998,46.77997c-0.78992,1.04004 -1.56995,2.10004 -2.34998,3.17999c-15.98999,-22.25995 -34.79004,-36.69995 -56,-44.39996l0,0.00002z"/>
  <path id="svg_3" fill="#fb923c" d="m638.64929,248.8442l0,0.01001c-1.42004,3.92999 -3.19995,7.89995 -5.32007,11.81001c-3.1499,5.82001 -7.98999,11.21997 -13.46997,16.04999c-5.87,5.17999 -12.48999,9.70001 -18.58008,13.37c-8.5,5.13 -15.96997,8.60999 -18.90991,9.92999l0,-3.14996c16.89001,-20.10004 34.84998,-36.48004 54,-48.82001c-20.34009,7.38 -38.44995,20.97998 -54,41.70996l0,-13.88995c16.89001,-20.10004 34.84998,-36.48004 54,-48.82001c-20.34009,7.38 -38.44995,20.97998 -54,41.70996l0,-13.88995c16.66992,-19.83002 34.37,-36.04004 53.23999,-48.32001c8.84009,7.10999 9.60999,24.26001 3.04004,42.29999l0,-0.00002z"/>
  <circle id="svg_4" fill="#4fffb0" r="143.68463" cy="245.54544" cx="143.68463"/>
  <path fill="#fcb4b4" d="m593.86542,475.91107c12.08508,10.18033 16.6283,24.66791 10.14819,32.35791c-6.4801,7.68994 -21.52747,5.66974 -33.61548,-4.5159c-4.88446,-4.0025 -8.73944,-9.11652 -11.24231,-14.91425l-50.66037,-43.78113l21.05191,-23.33551l47.70709,45.63794c6.14044,1.48282 11.83636,4.41492 16.6109,8.55093l0.00006,0l0.00001,0.00001z" id="uuid-9ac3c440-2c29-483e-b5ea-f157a67fda2d-151"/>
  <polygon id="svg_5" fill="#e5e7eb" points="552.95795 443.51905 491.02707 363.99381 432.36926 256.63874 430.84827 405.52921 518.77356 477.74518 552.95795 443.51905"/>
  <polygon id="svg_6" fill="#fcb4b4" points="283.55597 224.62357 297.74335 160.11792 345.16339 162.39891 357.33582 209.19409 283.55597 224.62357"/>
  <polygon id="svg_7" opacity="0.1" isolation="isolate" points="283.55597 224.62357 297.74335 160.11792 345.16339 162.39891 357.33582 209.19409 283.55597 224.62357"/>
  <circle id="svg_8" fill="#fcb4b4" r="53.08847" cy="124.33786" cx="320.27975"/>
  <path id="svg_9" fill="#e5e7eb" d="m296.53302,144.83966l0,-0.00003s-5.35571,-0.05193 -16.49579,-2.1235c-11.14008,-2.07162 8.20172,23.95969 8.20172,23.95969c-52.42401,-21.89015 -35.64839,-77.41381 -35.64839,-77.41381c-53.20448,-10.17499 -30.91603,-57.47251 -30.91603,-57.47251c0,0 17.53793,-33.84457 71.45114,-31.6909c53.91318,2.15367 28.44357,55.32713 28.44357,55.32713c35.12576,0.06654 39.07767,31.72302 39.07767,31.72302c0,0 -12.66254,1.58075 -35.67487,7.42121c-23.01227,5.84041 -28.43887,50.26965 -28.43887,50.26965l-0.00006,0.00003l-0.00003,0.00003l-0.00006,0l0,-0.00001z"/>
  <path id="svg_10" fill="#ffb6b6" d="m294.42831,204.30803l-2.39764,-4.6693s-42.66142,4.94489 -49.66142,11.47244s-23,35.52756 -23,35.52756l35,30.00003l40.05907,-72.33072l0,-0.00002l-0.00001,0.00001z"/>
  <path id="svg_11" fill="#ffb6b6" d="m347.36926,203.17417s32,-8.53543 50,9.46457s39,51.00003 39,51.00003l-1,26l-50,-24.10236l-38,-62.3622l0,-0.00005l0,0.00001z"/>
  <path id="svg_12" fill="#e5e7eb" d="m355.52676,199.63872s41.84253,-15 68.84253,17s35,133.00002 35,133.00002c0,0 60.99997,186.99994 46,188.99994s-106.53979,7.52759 -106.53979,7.52759l-31.46021,-203.52756l-14,-143l2.15747,0l0,0.00002l0,-0.00001z"/>
  <path id="svg_13" fill="#fcb4b4" d="m259.36926,379.63874l-10,36l136,10s-5,-30.09448 0,-41.04724l-126,-4.95276z"/>
  <polygon id="svg_14" fill="#fcb4b4" points="336.36926 613.63874 342.36926 699.63874 417.88895 697.63874 415.36926 610.63874 336.36926 613.63874"/>
  <polygon id="svg_15" fill="#fcb4b4" points="218.54477 605.13196 196.36926 698.63874 275.42792 698.10382 295.5704 621.67328 218.54477 605.13196"/>
  <path id="svg_16" fill="#fb923c" d="m353.36926,199.63872l-61.33859,0l-49.66142,66.00002l11,135s25.00002,-7 60.00002,-7l75,0s-11,-35 3,-49s4,-79 4,-79l-42,-66l0,-0.00002l-0.00001,0z"/>
  <path id="svg_17" fill="#e5e7eb" d="m244.36926,404.63874l-56,202.99994s82.46021,33.13385 132.2301,23.56696s117.7699,-12.56696 117.7699,-12.56696l-48,-206l-146,-8l0,0.00006z"/>
  <path fill="#fcb4b4" d="m373.86539,478.91107c12.08511,10.18033 16.6283,24.66791 10.14822,32.35791c-6.4801,7.68994 -21.52747,5.66974 -33.61551,-4.5159c-4.88449,-4.0025 -8.73944,-9.11652 -11.24231,-14.91425l-50.66037,-43.78113l21.05194,-23.33551l47.70709,45.63794c6.14044,1.48282 11.83636,4.41492 16.61093,8.55093l0.00001,0.00001z" id="uuid-73c6c48b-3ad6-4bf4-ae9b-2aead64e96c3-152"/>
  <polygon id="svg_18" fill="#e5e7eb" points="342.95795 443.51905 281.02707 363.99381 222.36926 256.63874 220.84827 405.52921 308.77356 477.74518 342.95795 443.51905"/>
  <path id="svg_19" fill="#e5e7eb" d="m296.21179,199.63872s-41.84253,-15 -68.84253,17s-35,133.00002 -35,133.00002c0,0 -61,186.99994 -46,188.99994s106.53979,7.52759 106.53979,7.52759l31.46021,-203.52756l14,-143l-2.15747,0l0,0.00002l0,-0.00001z"/>
  <rect id="svg_20" fill="#e5e7eb" height="348.00002" width="2" y="161.63872" x="581.36926"/>
  <path id="svg_21" fill="#fb923c" d="m27.36927,518.63874c19.90002,12.82996 38.54004,30.01001 56,51.20001l0,32.39996c-8.52002,-2.89996 -41.03998,-14.91998 -53.88,-33.92999c-14.83997,-21.96997 -17.47998,-55.32001 -5.12,-63.66998c3.21997,-2.17004 7.13,-2.44 11.41998,-1.25c13.52997,9.72998 26.47003,21.52997 38.83002,35.27997c4.38,6.73004 7.09009,15.29999 8.75,23.96002l0,0.40997c-15.98999,-22.25995 -34.79004,-36.69995 -56,-44.39996z"/>
  <path id="svg_22" fill="#fb923c" d="m26.36927,319.63874c19.90002,12.82996 38.54004,30.01001 56,51.20001l0,7.39996c-1.66992,-0.57001 -4.25,-1.47998 -7.42993,-2.72998c-14.28003,-16.92999 -30.56006,-28.33002 -48.57007,-34.87c12.59998,8.12 24.69995,17.98999 36.31006,29.51996c-12.28003,-5.90997 -26.64008,-14.66998 -34.19006,-25.84998c-0.79999,-1.17999 -1.56,-2.37 -2.27997,-3.57001c-12.70001,-21.08002 -13.54004,-44.20001 -1.84003,-52.09998c12.35999,-8.35004 34.03003,3.47998 48.87,25.44c8.57996,12.70996 10.98999,32.42999 11.47998,46.77997c-0.78992,1.04004 -1.56995,2.10004 -2.34998,3.17999c-15.98999,-22.25995 -34.79004,-36.69995 -55.99999,-44.39996l-0.00001,0.00002z"/>
  <path id="svg_23" fill="#fb923c" d="m139.64931,437.84421l0,0.01001c-1.42004,3.92999 -3.19995,7.89996 -5.32007,11.81c-3.1499,5.82001 -7.98999,11.21997 -13.46997,16.04999c-5.87,5.17999 -12.48999,9.70001 -18.58008,13.37c-8.5,5.13 -15.96997,8.60999 -18.90991,9.92999l0,-3.14996c16.89001,-20.10004 34.84998,-36.48004 54,-48.82001c-20.34009,7.38 -38.44995,20.97998 -54,41.70996l0,-13.88995c16.89001,-20.10004 34.84998,-36.48004 54,-48.82001c-20.34009,7.38 -38.44995,20.97998 -54,41.70996l0,-13.88995c16.66992,-19.83002 34.37,-36.04004 53.23999,-48.32001c8.84009,7.10999 9.60999,24.26001 3.04004,42.29999l0,-0.00001z"/>
  <rect id="svg_24" fill="#e5e7eb" height="347.99994" width="2" y="350.63874" x="82.36927"/>
 </g>
</svg>