<svg width="598.25299" height="581.49793" xmlns="http://www.w3.org/2000/svg" source="https://undraw.co/" artist="Katerina Limpitsouni" role="img" data-src="https://cdn.undraw.co/illustrations/blooming_g9e9.svg">

 <g>
  <title>Layer 1</title>
  <path fill="#ffb6b6" d="m317.37575,441.36116c-8.89671,1.36364 -15.40463,7.05944 -14.53588,12.72122c0.86876,5.66178 8.78434,9.14461 17.68405,7.7793c3.56255,-0.49662 6.95436,-1.83918 9.89166,-3.91538l37.62277,-6.25382l-2.511,-14.87153l-37.53792,5.31177c-3.42552,-1.10114 -7.06497,-1.36572 -10.61369,-0.77157l0.00001,0.00001z" id="uuid-207e1ec5-f316-41d7-bdda-8b0dd0a2bd60-328"/>
  <polygon id="svg_1" fill="#6c63ff" points="479.50058 395.00508 464.91227 425.96119 391.57489 450.64909 330.71947 453.89578 329.19546 439.2792 395.14843 425.48908 462.82463 393.50814 479.50058 395.00508"/>
  <g id="svg_2">
   <rect transform="rotate(-1.26066 316.836 422.44)" id="svg_3" fill="#3f3d56" height="173.77644" width="2.0005" y="335.55221" x="315.83579"/>
   <path id="svg_4" fill="#3f3d56" d="m315.28146,406.74244c-0.18115,-0.61621 -4.32715,-15.26855 4.65088,-29.6709l1.69727,1.05859c-8.48975,13.61816 -4.47021,27.90723 -4.42871,28.05078l-1.91943,0.56152l-0.00001,0.00001z"/>
   <path id="svg_5" fill="#6c63ff" d="m319.78311,378.60915s-2.72937,-18.65506 22.41425,-23.77492c5.23825,-1.06664 10.16278,-1.79561 14.67694,-2.28132c5.32851,-0.57333 7.40701,6.72083 2.59337,9.0768c-6.97123,3.41197 -13.52893,7.71085 -16.94694,12.80161c-9.42681,14.04022 -22.73764,4.17784 -22.73764,4.17784l0.00002,-0.00001z"/>
   <path id="svg_6" fill="#3f3d56" d="m317.44236,460.26417l-1.91943,-0.56152c0.0415,-0.14355 4.06104,-14.43262 -4.42871,-28.05078l1.69727,-1.05859c8.97803,14.40234 4.83203,29.05469 4.65088,29.6709l-0.00001,-0.00001z"/>
   <path id="svg_7" fill="#6c63ff" d="m313.36642,432.13052s2.72937,-18.65506 -22.41425,-23.77492c-5.23825,-1.06664 -10.16278,-1.79561 -14.67694,-2.28132c-5.32851,-0.57333 -7.40701,6.72083 -2.59337,9.0768c6.97123,3.41197 13.52893,7.71085 16.94694,12.80161c9.42681,14.04022 22.73764,4.17784 22.73764,4.17784l-0.00002,-0.00001z"/>
   <path id="svg_8" fill="#6c63ff" d="m345.38308,306.12152c5.06107,-1.33443 9.79382,-3.65962 9.63686,-5.95984c-0.18646,-2.73252 -7.21292,-4.56342 -13.27465,-4.84202c4.57215,-3.57699 8.77317,-8.52168 7.48846,-10.75799c-1.1811,-2.05594 -6.67554,-1.25956 -11.74486,0.5512c2.99995,-4.28898 5.10906,-9.12193 3.50282,-10.77588c-2.00087,-2.06027 -9.10218,1.49577 -13.9485,5.42651c0.94344,-6.1237 0.46649,-13.8534 -2.2801,-14.55274c-2.29776,-0.58506 -5.55432,3.91139 -7.78706,8.80952c-0.98679,-5.1402 -2.98444,-10.02026 -5.29,-10.02026c-3.28439,0 -5.9469,9.9025 -5.9469,16.35398c0,0.36468 0.00967,0.70797 0.02632,1.03597c-0.32965,-0.38218 -0.70745,-0.78145 -1.1383,-1.19988c-4.62815,-4.49466 -13.58691,-9.48355 -15.8751,-7.12744c-1.60625,1.65395 0.50287,6.4869 3.50282,10.77588c-5.06932,-1.81075 -10.56375,-2.60714 -11.74486,-0.5512c-1.58701,2.76251 5.19664,9.65864 10.71068,13.00291c-0.33147,-0.03993 -0.67971,-0.07355 -1.05033,-0.09883c-6.4365,-0.43917 -16.49728,1.54306 -16.72087,4.81983c-0.15696,2.30022 4.57578,4.62541 9.63686,5.95984c-5.03878,1.89411 -9.74642,4.83707 -9.31913,7.16931c0.51858,2.8306 8.42853,3.82148 14.64789,3.24148c-4.64633,4.4579 -9.68446,12.44383 -7.5819,14.78429c1.54078,1.71511 6.50608,-0.06012 10.98934,-2.76114c-2.15166,4.93429 -3.32024,10.36176 -1.34945,11.68009c2.60449,1.74223 9.74743,-4.32147 13.51348,-9.53904c-0.38374,6.38314 1.14359,15.15229 4.17408,15.49836c2.29068,0.2616 4.82911,-4.36033 6.39273,-9.35537c1.66258,5.11982 4.38795,9.95671 6.73724,9.63613c3.05486,-0.41687 4.38668,-9.40546 3.81684,-15.79319c3.88469,5.00287 10.42248,10.35339 12.88884,8.70356c1.9708,-1.31833 0.80222,-6.7458 -1.34945,-11.68009c4.48325,2.70102 9.44855,4.47625 10.98934,2.76114c2.10256,-2.34046 -2.93557,-10.3264 -7.5819,-14.78429c6.21936,0.58 14.12931,-0.41088 14.64789,-3.24148c0.42729,-2.33224 -4.28035,-5.2752 -9.31913,-7.16931l0,-0.00001zm-27.25118,18.05535c-1.30094,0.17752 -2.49049,0.43103 -3.39512,1.07838c-0.96104,-0.95404 -2.3647,-1.2446 -3.92539,-1.42282c-1.74749,-0.19956 -3.33551,-0.21882 -4.54651,0.78962c-0.44311,-1.23164 -1.53269,-2.1066 -2.80192,-2.95564c-1.09135,-0.73004 -2.14972,-1.3293 -3.2561,-1.44485c-0.08644,-1.35139 -0.94416,-2.4999 -1.99392,-3.66846c-0.66934,-0.7451 -1.33902,-1.41125 -2.08213,-1.85683c1.07214,-1.3054 0.94852,-2.9553 0.61679,-4.76601c-0.2366,-1.2915 -0.54407,-2.46827 -1.23197,-3.34246c0.90927,-1.00353 1.13558,-2.41899 1.24252,-3.98616c0.11675,-1.7112 0.06824,-3.26269 -0.91948,-4.41797c2.55254,0.32468 3.78435,-1.26552 4.92929,-3.25854c0.65405,-1.13848 1.17989,-2.23522 1.21986,-3.3469c1.34239,-0.17824 2.42983,-1.11217 3.52418,-2.23903c0.93486,-0.96262 1.73007,-1.91578 2.02877,-3.01283c1.0712,0.90022 2.53281,1.03646 4.14527,1.03646c1.57083,0 2.99839,-0.12942 4.06148,-0.96827c0.82534,0.7458 1.97845,1.13265 3.25084,1.45663c1.21463,0.30928 2.36117,0.51612 3.4036,0.30795c0.38052,0.86931 1.05707,1.65872 1.82981,2.4544c1.09435,1.12687 2.18179,2.06079 3.52418,2.23903c0.03998,1.11167 0.56582,2.20841 1.21986,3.3469c0.76989,1.34014 1.57848,2.49889 2.80151,3.01589c-0.1428,0.77844 -0.12753,1.63528 -0.06603,2.53672c0.10695,1.56718 0.33326,2.98266 1.24252,3.98616c-0.68791,0.87419 -0.99537,2.05096 -1.23197,3.34246c-0.33173,1.8107 -0.45535,3.46061 0.61679,4.76601c-0.7431,0.44557 -1.41278,1.11173 -2.08213,1.85683c-1.04976,1.16856 -1.90749,2.31707 -1.99392,3.66846c-1.10638,0.11555 -2.16475,0.71482 -3.2561,1.44485c-1.49056,0.99708 -2.73218,2.03061 -2.97065,3.63515c-1.11854,-0.54256 -2.45752,-0.47248 -3.90393,-0.27513z"/>
   <circle id="svg_9" fill="#3f3d56" r="21.23894" cy="306.0531" cx="314.6595"/>
  </g>
  <path id="svg_10" fill="#3f3d56" d="m58.50921,563.59732c0,0.66003 0.53003,1.19 1.19006,1.19l522.28998,0c0.65997,0 1.19,-0.52997 1.19,-1.19c0,-0.65997 -0.53003,-1.19 -1.19,-1.19l-522.28998,0c-0.66003,0 -1.19006,0.53003 -1.19006,1.19z"/>
  <polygon id="svg_11" fill="#ffb6b6" points="344.23894 512.546 331.14162 545.67451 314.19215 534.11806 324.20774 499.44869 344.23894 512.546"/>
  <polygon id="svg_12" fill="#ffb6b6" points="289.53838 500.21912 254.86901 533.34763 268.73676 547.9858 304.17655 520.25031 289.53838 500.21912"/>
  <polygon id="svg_13" fill="#ffb6b6" points="485.99813 392.35886 485.61291 389.66236 476.75296 372.32767 447.47661 380.03198 452.86962 403.91532 485.99813 392.35886"/>
  <path id="svg_14" fill="#2f2e41" d="m473.67124,507.92342l0.90036,11.57162s3.72223,48.52195 -26.32456,52.3741c-30.04679,3.85215 -43.1441,7.7043 -60.864,-22.34248l-27.73549,-49.30754l-16.20027,19.27593l-21.55082,-16.96463s15.40861,-60.09357 27.73549,-62.40486c1.54086,-0.28891 3.08172,-0.43337 4.59851,-0.46497c10.20508,-0.21261 19.82492,4.77897 25.93085,12.95861l34.95723,46.82949l12.7121,-5.77823l45.84061,14.25296l-0.00001,0z"/>
  <path id="svg_15" fill="#2f2e41" d="m307.25828,544.13365l6.93387,-13.09732l20.03119,13.86775s4.62258,16.94947 -2.31129,19.26076c-6.93387,2.31129 -26.19463,-0.77043 -26.19463,-0.77043c0,0 -35.4398,7.7043 -36.21023,0.77043s16.17904,-8.47473 16.17904,-8.47473l21.57205,-11.55646z"/>
  <path id="svg_16" fill="#2f2e41" d="m382.76045,534.88849l-53.54491,-33.73818l-27.35028,24.49301l-18.49033,-21.57205s33.89894,-50.07798 43.91453,-52.38927s26.19463,-3.85215 26.19463,-3.85215l49.30754,45.45539l-20.03119,41.60324l0.00001,0.00001z"/>
  <path id="svg_17" fill="#2f2e41" d="m254.09858,530.2659l17.7199,19.26076l-2.33678,1.99887s-4.59709,20.02209 -15.38312,13.24898c-10.78603,-6.77311 -11.55646,-8.31398 -11.55646,-8.31398c0,0 -30.81722,6.93387 -33.89894,-5.39301c-3.08172,-12.32689 5.39301,-10.0156 5.39301,-10.0156l7.6952,4.62258l32.36718,-15.40861l0.00001,0.00001z"/>
  <circle id="svg_18" fill="#ffb6b6" r="24.65377" cy="363.85294" cx="456.72177"/>
  <path id="svg_19" fill="#6c63ff" d="m450.94354,398.90752l35.4398,-10.78603s13.86775,32.35808 11.55646,46.99625c-2.31129,14.63818 -23.3682,84.37729 -23.3682,84.37729l-46.74096,-25.82458s-0.77043,-15.40861 -3.08172,-22.34248s-9.63038,-28.12071 6.54866,-45.84061c16.17904,-17.7199 19.64597,-26.57985 19.64597,-26.57985l-0.00001,0.00001z"/>
  <g id="svg_20">
   <rect transform="rotate(-1.26058 114.021 358.787)" id="svg_21" fill="#3f3d56" height="409.09901" width="1.99952" y="154.23716" x="113.02145"/>
   <path id="svg_22" fill="#3f3d56" d="m114.18021,332.47606c-0.10254,-0.34961 -10.01758,-35.3584 10.79932,-68.75146l1.69727,1.05811c-20.34814,32.6416 -10.67773,66.78906 -10.57764,67.13086l-1.91895,0.5625l0,-0.00001z"/>
   <path id="svg_23" fill="#6c63ff" d="m122.48234,266.62493s-6.42539,-43.91713 52.76688,-55.97014c12.33172,-2.51104 23.92488,-4.22717 34.55197,-5.3706c12.54419,-1.34971 17.43734,15.82195 6.10524,21.36829c-16.41144,8.03236 -31.84935,18.15263 -39.89591,30.13712c-22.19228,33.05303 -53.52818,9.83533 -53.52818,9.83533z"/>
   <path id="svg_24" fill="#3f3d56" d="m115.67143,459.47606l-1.91895,-0.5625c0.09961,-0.34082 9.75146,-34.52051 -10.57764,-67.13086l1.69727,-1.05859c20.81689,33.39355 10.90186,68.40234 10.79932,68.75195z"/>
   <path id="svg_25" fill="#6c63ff" d="m105.3693,391.62493s6.42539,-43.91713 -52.76688,-55.97014c-12.33172,-2.51104 -23.92488,-4.22717 -34.55197,-5.3706c-12.54419,-1.34971 -17.43734,15.82195 -6.10524,21.36829c16.41144,8.03236 31.84935,18.15263 39.89591,30.13712c22.19228,33.05303 53.52818,9.83533 53.52818,9.83533z"/>
   <path id="svg_26" fill="#6c63ff" d="m181.75425,103.08508c11.91461,-3.14148 23.05627,-8.61536 22.68677,-14.03046c-0.43896,-6.4328 -16.98041,-10.74304 -31.25073,-11.39893c10.76361,-8.42084 20.6535,-20.06146 17.62909,-25.32611c-2.78052,-4.84003 -15.71533,-2.96521 -27.64935,1.29761c7.06238,-10.09698 12.02759,-21.47455 8.24622,-25.36823c-4.71039,-4.85022 -21.42804,3.5213 -32.8371,12.7749c2.22101,-14.4162 1.09821,-32.61322 -5.36774,-34.25958c-5.4093,-1.37732 -13.07581,9.20807 -18.33203,20.73907c-2.32306,-12.10089 -7.02588,-23.58936 -12.45355,-23.58936c-7.73199,0 -14,23.31213 -14,38.5c0,0.85852 0.02277,1.66669 0.06195,2.43884c-0.77606,-0.89972 -1.66547,-1.83966 -2.67975,-2.82471c-10.89545,-10.58118 -31.98584,-22.32587 -37.37262,-16.77917c-3.78137,3.89368 1.18384,15.27124 8.24622,25.36823c-11.93402,-4.26282 -24.86884,-6.13763 -27.64935,-1.29761c-3.73608,6.50342 12.23376,22.73804 25.21472,30.61102c-0.78033,-0.09399 -1.60016,-0.17316 -2.47266,-0.23267c-15.15259,-1.03387 -38.83734,3.63263 -39.36371,11.34668c-0.36951,5.4151 10.77216,10.88898 22.68677,14.03046c-11.86212,4.45905 -22.9447,11.38727 -21.93878,16.87775c1.22083,6.6637 19.84216,8.9964 34.48358,7.63098c-10.93823,10.49463 -22.79883,29.29486 -17.84906,34.80469c3.62726,4.03766 15.31641,-0.14154 25.87073,-6.50018c-5.06537,11.61615 -7.81641,24.39331 -3.17682,27.49689c6.13141,4.1015 22.94708,-10.17346 31.81299,-22.45648c-0.90338,15.02698 2.6922,35.67102 9.82648,36.48572c5.39264,0.61584 11.36853,-10.26495 15.04956,-22.02411c3.914,12.05292 10.32996,23.43976 15.8606,22.68506c7.19165,-0.98138 10.32697,-22.14203 8.98547,-37.17981c9.1452,11.77759 24.53625,24.3736 30.34247,20.48962c4.63959,-3.10358 1.88855,-15.88074 -3.17682,-27.49689c10.55432,6.35864 22.24347,10.53784 25.87073,6.50018c4.94977,-5.50983 -6.91083,-24.31006 -17.84906,-34.80469c14.64142,1.36542 33.26276,-0.96729 34.48358,-7.63098c1.00592,-5.49048 -10.07666,-12.4187 -21.93878,-16.87775l-0.00002,0.00002zm-64.15381,42.50531c-3.06262,0.41791 -5.86304,1.01471 -7.99268,2.5387c-2.26245,-2.24597 -5.56689,-2.92999 -9.24103,-3.34955c-4.11389,-0.46979 -7.85236,-0.51514 -10.70325,1.85889c-1.04315,-2.89948 -3.60822,-4.95929 -6.59619,-6.95807c-2.56921,-1.71863 -5.06079,-3.12939 -7.66541,-3.40143c-0.20349,-3.1814 -2.22272,-5.88519 -4.69403,-8.63617c-1.57574,-1.75409 -3.15228,-3.32233 -4.90167,-4.37128c2.52399,-3.07312 2.23297,-6.95728 1.45203,-11.21997c-0.55701,-3.04041 -1.28082,-5.81073 -2.90027,-7.86871c2.14056,-2.36249 2.67334,-5.6947 2.92511,-9.38409c0.27484,-4.02844 0.16064,-7.68091 -2.16461,-10.40063c6.00909,0.76434 8.909,-2.97925 11.60437,-7.67114c1.53973,-2.68018 2.77765,-5.26208 2.87177,-7.87915c3.16022,-0.41962 5.72021,-2.61823 8.29651,-5.27106c2.20081,-2.26617 4.07288,-4.51007 4.77606,-7.09271c2.52179,2.11926 5.96265,2.44 9.75867,2.44c3.698,0 7.05872,-0.30469 9.5614,-2.27948c1.94299,1.75574 4.65759,2.66644 7.65302,3.42914c2.85944,0.72809 5.55859,1.21503 8.01263,0.72498c0.89581,2.04651 2.48853,3.90491 4.30768,5.77808c2.57629,2.65283 5.13629,4.85144 8.29651,5.27106c0.09412,2.61707 1.33203,5.19897 2.87177,7.87915c1.81244,3.15491 3.716,5.88281 6.59521,7.09991c-0.33618,1.83258 -0.30023,3.84973 -0.15546,5.97186c0.25177,3.68939 0.78455,7.02167 2.92511,9.38409c-1.61945,2.05798 -2.34326,4.82831 -2.90027,7.86871c-0.78094,4.2627 -1.07196,8.14685 1.45203,11.21997c-1.74939,1.04895 -3.32593,2.61719 -4.90167,4.37128c-2.47131,2.75098 -4.49054,5.45477 -4.69403,8.63617c-2.60461,0.27203 -5.09619,1.6828 -7.66541,3.40143c-3.50903,2.34729 -6.43201,4.7804 -6.99341,8.55774c-2.63324,-1.27728 -5.7854,-1.1123 -9.19049,-0.64771l0,-0.00001z"/>
   <circle id="svg_27" fill="#3f3d56" r="50" cy="102.92401" cx="108.07447"/>
  </g>
  <g id="svg_28">
   <rect transform="rotate(-1.26084 572.766 514.81)" id="svg_29" fill="#3f3d56" height="97.74925" width="2.00002" y="465.9357" x="571.76651"/>
   <path id="svg_30" fill="#3f3d56" d="m570.979,507.56322c-0.104,-0.35449 -2.48779,-8.7793 2.66504,-17.04492l1.69727,1.05859c-4.66504,7.48242 -2.46533,15.34668 -2.44287,15.4248l-1.91943,0.56152l-0.00001,0.00001z"/>
   <path id="svg_31" fill="#6c63ff" d="m574.40991,491.3756s-1.53527,-10.49347 12.60802,-13.3734c2.94652,-0.59998 5.71656,-1.01003 8.25578,-1.28324c2.99728,-0.3225 4.16644,3.78047 1.45877,5.1057c-3.92132,1.91924 -7.61002,4.33735 -9.53265,7.2009c-5.30258,7.89763 -12.78992,2.35003 -12.78992,2.35003l0,0.00001z"/>
   <path id="svg_32" fill="#3f3d56" d="m573.27392,537.90795l-1.91943,-0.56152c0.02246,-0.07812 2.22217,-7.94141 -2.44287,-15.42383l1.69727,-1.05859c5.15283,8.26562 2.76904,16.68945 2.66504,17.04395l-0.00001,-0.00001z"/>
   <path id="svg_33" fill="#6c63ff" d="m569.84308,521.72073s1.53527,-10.49347 -12.60802,-13.3734c-2.94652,-0.59998 -5.71656,-1.01003 -8.25578,-1.28324c-2.99728,-0.3225 -4.16644,3.78047 -1.45877,5.1057c3.92132,1.91924 7.61002,4.33735 9.53265,7.2009c5.30258,7.89763 12.78992,2.35003 12.78992,2.35003l0,0.00001z"/>
   <path id="svg_34" fill="#6c63ff" d="m589.52798,450.6013c2.84685,-0.75062 5.50902,-2.05854 5.42073,-3.35241c-0.10489,-1.53704 -4.05727,-2.56692 -7.46699,-2.72364c2.57184,-2.01206 4.93491,-4.79345 4.21226,-6.05137c-0.66437,-1.15647 -3.75499,-0.7085 -6.60648,0.31005c1.68747,-2.41255 2.87385,-5.13109 1.97033,-6.06143c-1.12549,-1.1589 -5.11997,0.84137 -7.84603,3.05241c0.53068,-3.44458 0.2624,-7.79254 -1.28256,-8.18592c-1.29249,-0.32909 -3.12431,2.20016 -4.38022,4.95535c-0.55507,-2.89136 -1.67875,-5.63639 -2.97563,-5.63639c-1.84747,0 -3.34513,5.57016 -3.34513,9.19912c0,0.20513 0.00544,0.39823 0.0148,0.58273c-0.18543,-0.21498 -0.39794,-0.43956 -0.64029,-0.67493c-2.60334,-2.52825 -7.64263,-5.3345 -8.92974,-4.00918c-0.90351,0.93035 0.28286,3.64888 1.97033,6.06143c-2.85149,-1.01855 -5.94211,-1.46651 -6.60648,-0.31005c-0.89269,1.55391 2.92311,5.43298 6.02476,7.31414c-0.18645,-0.02246 -0.38234,-0.04137 -0.59081,-0.05559c-3.62053,-0.24703 -9.27972,0.86797 -9.40549,2.71115c-0.08829,1.29387 2.57388,2.60179 5.42073,3.35241c-2.83431,1.06544 -5.48236,2.72085 -5.24201,4.03274c0.2917,1.59221 4.74105,2.14958 8.23944,1.82333c-2.61356,2.50757 -5.44751,6.99966 -4.26482,8.31616c0.86669,0.96475 3.65967,-0.03382 6.1815,-1.55314c-1.21031,2.77554 -1.86764,5.82849 -0.75906,6.57005c1.46503,0.98 5.48293,-2.43083 7.60133,-5.36571c-0.21585,3.59052 0.64327,8.52316 2.34792,8.71783c1.28851,0.14715 2.71637,-2.45269 3.59591,-5.2624c0.9352,2.8799 2.46822,5.60065 3.7897,5.42032c1.71836,-0.23449 2.4675,-5.29057 2.14697,-8.88367c2.18514,2.81411 5.86264,5.82378 7.24997,4.89575c1.10857,-0.74156 0.45125,-3.79451 -0.75906,-6.57005c2.52183,1.51932 5.31481,2.51789 6.1815,1.55314c1.18269,-1.31651 -1.65126,-5.8086 -4.26482,-8.31616c3.49839,0.32625 7.94774,-0.23112 8.23944,-1.82333c0.24035,-1.31188 -2.4077,-2.9673 -5.24201,-4.03274l0.00001,0zm-15.32879,10.15614c-0.73178,0.09985 -1.4009,0.24245 -1.90975,0.60659c-0.54059,-0.53665 -1.33014,-0.70009 -2.20803,-0.80033c-0.98297,-0.11225 -1.87623,-0.12309 -2.55741,0.44416c-0.24925,-0.69279 -0.86214,-1.18496 -1.57608,-1.66255c-0.61388,-0.41065 -1.20922,-0.74773 -1.83156,-0.81273c-0.04862,-0.76016 -0.53109,-1.4062 -1.12158,-2.06351c-0.37651,-0.41912 -0.7532,-0.79383 -1.1712,-1.04446c0.60308,-0.73429 0.53354,-1.66236 0.34694,-2.68088c-0.13309,-0.72647 -0.30604,-1.3884 -0.69298,-1.88014c0.51146,-0.56449 0.63876,-1.36068 0.69892,-2.24222c0.06567,-0.96255 0.03838,-1.83526 -0.51721,-2.48511c1.4358,0.18263 2.1287,-0.71186 2.77273,-1.83293c0.3679,-0.6404 0.66369,-1.25731 0.68617,-1.88263c0.7551,-0.10026 1.36678,-0.62559 1.98235,-1.25946c0.52586,-0.54148 0.97317,-1.07763 1.14118,-1.69472c0.60255,0.50637 1.4247,0.58301 2.33172,0.58301c0.88359,0 1.6866,-0.0728 2.28458,-0.54465c0.46426,0.41951 1.11288,0.63711 1.8286,0.81935c0.68323,0.17397 1.32816,0.29032 1.91452,0.17322c0.21404,0.48899 0.5946,0.93303 1.02927,1.3806c0.61557,0.63386 1.22726,1.15919 1.98235,1.25946c0.02249,0.62532 0.31827,1.24223 0.68617,1.88263c0.43306,0.75383 0.88789,1.40563 1.57585,1.69644c-0.08033,0.43787 -0.07174,0.91985 -0.03714,1.42691c0.06016,0.88154 0.18746,1.67774 0.69892,2.24222c-0.38695,0.49173 -0.55989,1.15367 -0.69298,1.88014c-0.1866,1.01852 -0.25613,1.94659 0.34694,2.68088c-0.418,0.25063 -0.79469,0.62535 -1.1712,1.04446c-0.59049,0.65731 -1.07296,1.30335 -1.12158,2.06351c-0.62234,0.065 -1.21767,0.40209 -1.83156,0.81273c-0.83844,0.56086 -1.53685,1.14222 -1.67099,2.04477c-0.62918,-0.30519 -1.38235,-0.26577 -2.19596,-0.15476z"/>
   <circle id="svg_35" fill="#3f3d56" r="11.9469" cy="450.56282" cx="572.24597"/>
  </g>
  <g id="svg_36">
   <path fill="#ffb6b6" d="m372.9429,560.6837c-5.76763,6.90981 -6.87749,15.48672 -2.47944,19.15655c4.39805,3.66983 12.6373,1.04277 18.40606,-5.87027c2.34226,-2.72987 3.99672,-5.98097 4.82492,-9.48131l24.06795,-29.58576l-11.72388,-9.48778l-24.62774,28.82333c-3.29686,1.44132 -6.20051,3.65139 -8.46786,6.44523l-0.00001,0.00001z" id="uuid-fcc96ddd-8a9b-4008-9e3e-ba4d42e134c9-329"/>
   <polygon id="svg_37" fill="#6c63ff" points="478.12744 414.451 486.50417 447.63127 445.50568 513.25891 403.65242 555.32266 390.08694 544.06849 432.29671 491.54901 464.29146 423.87933 478.12744 414.451"/>
  </g>
  <path id="svg_38" fill="#2f2e41" d="m433.99408,359.61557c6.32276,-0.01514 6.68173,0.02699 7.7043,0c7.84218,-0.20681 9.89286,-3.2921 13.86775,-3.08172c7.09451,0.37553 -2.26916,35.94511 -6.16344,52.38927c-3.81924,16.12741 9.08811,30.5789 10.0156,31.58765c13.10117,14.24835 36.11364,16.85373 40.06238,10.78603c3.19618,-4.91121 -8.13109,-12.37871 -5.39301,-23.11291c2.67657,-10.49307 15.03562,-9.3757 18.49033,-19.26076c3.61798,-10.35219 -8.54038,-15.57338 -16.17904,-40.83281c-4.3869,-14.50661 -3.61083,-17.20961 -7.7043,-26.19463c-10.94177,-24.01645 -64.57358,-13.7909 -58.55271,8.47473c1.16467,4.307 -1.93482,9.25899 3.85215,9.24516l-0.00001,-0.00001z"/>
 </g>
</svg>